# xmcd
#
# Track frame offsets: 
#        150
#        2429
#        10677
#        11195
#        33038
#        34225
#        35363
#        38177
#        82205
#        101175
#        104343
#        109347
#        117527
#        151560
#        155645
#        158298
#        158979
#        204182
#
# Disc length: 2859 seconds
#
# Revision: 1
# Processed by: cddbd v1.5.2PL0 Copyright (c) Steve Scherf et al.
# Submitted via: ExactAudioCopy v0.99pb5
#
DISCID=d00b2912
DTITLE=Charles Mingus - Charles Mingus in Paris | CD2
DYEAR=1970
DGENRE=Jazz
TTITLE0=Reincarnation of a lovebird: warm up and first false start
TTITLE1=Reincarnation of a lovebird: second false start
TTITLE2=Reincarnation of a lovebird: third false start
TTITLE3=Reincarnation of a lovebird: incomplete
TTITLE4=Peggy's blue skylight: first false start
TTITLE5=Peggy's blue skylight: second false start
TTITLE6=Peggy's blue skylight: third false start and rehearsal
TTITLE7=Peggy's blue skylight [Alternate (fast version)]
TTITLE8=Blue Bird [Incomplete]
TTITLE9=Reprise
TTITLE10=Love is a dangerous necessity: first false start
TTITLE11=Love is a dangerous necessity: second false start
TTITLE12=Pithecanthropus Erectus [First take, incomplete]
TTITLE13=Pithecanthropus Erectus: reprise
TTITLE14=Pithecanthropus Erectus: rehearsal
TTITLE15=Pithecanthropus Erectus: false start
TTITLE16=Pithecanthropus Erectus: to the end
TTITLE17=Pithecanthropus Erectus: Mingus explanation, restart
EXTD=YEAR: 1970
EXTT0=
EXTT1=
EXTT2=
EXTT3=
EXTT4=
EXTT5=
EXTT6=
EXTT7=
EXTT8=
EXTT9=
EXTT10=
EXTT11=
EXTT12=
EXTT13=
EXTT14=
EXTT15=
EXTT16=
EXTT17=
PLAYORDER=
